<svg width="1420" height="82" viewBox="0 0 1420 82" fill="none" xmlns="http://www.w3.org/2000/svg">
<path d="M1341.65 1.94824H1358.86L1401.82 53.5652V1.94824H1420V79.2113H1402.79L1359.83 27.4862V79.2113H1341.65V1.94824Z" fill="white"/>
<path d="M1236.32 40.5794C1236.32 32.211 1238.16 24.9969 1241.83 18.937C1245.51 12.8772 1250.74 8.22408 1257.53 4.97773C1264.31 1.65924 1272.35 0 1281.66 0C1290.96 0 1298.97 1.65924 1305.68 4.97773C1312.39 8.22408 1317.55 12.8772 1321.15 18.937C1324.83 24.9969 1326.67 32.211 1326.67 40.5794C1326.67 48.9477 1324.83 56.1618 1321.15 62.2217C1317.47 68.2815 1312.24 72.9707 1305.46 76.2892C1298.68 79.5355 1290.64 81.1587 1281.33 81.1587C1272.1 81.1587 1264.09 79.5355 1257.31 76.2892C1250.6 72.9707 1245.41 68.2815 1241.73 62.2217C1238.12 56.1618 1236.32 48.9477 1236.32 40.5794ZM1256.12 40.5794C1256.12 48.4427 1258.32 54.5747 1262.72 58.9753C1267.19 63.3038 1273.47 65.468 1281.55 65.468C1289.48 65.468 1295.69 63.3038 1300.16 58.9753C1304.63 54.5747 1306.87 48.4427 1306.87 40.5794C1306.87 32.6438 1304.63 26.5118 1300.16 22.1834C1295.76 17.8549 1289.56 15.6907 1281.55 15.6907C1273.54 15.6907 1267.3 17.891 1262.83 22.2916C1258.36 26.6201 1256.12 32.716 1256.12 40.5794Z" fill="white"/>
<path d="M1202.27 1.94824H1221.31V79.2113H1202.27V1.94824Z" fill="white"/>
<path d="M1142.76 17.6389H1113V1.94824H1191.56V17.6389H1161.8V79.2113H1142.76V17.6389Z" fill="white"/>
<path d="M1023.59 40.5794C1023.59 32.716 1025.29 25.7544 1028.68 19.6945C1032.07 13.5625 1037.01 8.76514 1043.5 5.30237C1049.99 1.76746 1057.89 0 1067.2 0C1088.84 0 1101.97 8.94549 1106.59 26.8365L1087.76 29.0007C1086.1 24.3115 1083.65 20.9209 1080.4 18.8288C1077.16 16.7367 1072.76 15.6907 1067.2 15.6907C1059.77 15.6907 1053.93 17.8549 1049.67 22.1834C1045.49 26.5118 1043.39 32.6438 1043.39 40.5794C1043.39 48.5149 1045.49 54.6469 1049.67 58.9753C1053.93 63.3038 1059.88 65.468 1067.53 65.468C1079.57 65.468 1086.64 60.851 1088.73 51.6169H1107.89C1106.81 60.9953 1102.69 68.2815 1095.55 73.4757C1088.48 78.5977 1079.03 81.1587 1067.2 81.1587C1057.82 81.1587 1049.89 79.4634 1043.39 76.0728C1036.9 72.61 1031.96 67.8487 1028.57 61.7888C1025.25 55.6568 1023.59 48.587 1023.59 40.5794Z" fill="white"/>
<path d="M932.565 46.315V1.94824H951.61V47.6135C951.61 53.7455 953.161 58.2544 956.263 61.14C959.438 64.0256 964.379 65.4685 971.088 65.4685C977.725 65.4685 982.595 64.0256 985.697 61.14C988.871 58.2544 990.458 53.7455 990.458 47.6135V1.94824H1009.5V46.315C1009.5 58.4347 1006.22 67.272 999.656 72.8269C993.091 78.3817 983.569 81.1591 971.088 81.1591C958.536 81.1591 948.977 78.3817 942.412 72.8269C935.847 67.272 932.565 58.4347 932.565 46.315Z" fill="white"/>
<path d="M846.354 1.94824H884.877C906.88 1.94824 917.882 10.2084 917.882 26.7287C917.882 32.1393 916.692 36.576 914.311 40.0387C911.93 43.4294 908.432 46.0986 903.815 48.0464L922.86 79.2113H902.083L885.96 51.7256C885.527 51.7256 885.058 51.7256 884.553 51.7256C884.048 51.7256 883.471 51.7256 882.821 51.7256H864.425V79.2113H846.354V1.94824ZM899.378 26.7287C899.378 22.9052 898.151 20.1999 895.699 18.6128C893.246 17.0257 889.278 16.2322 883.795 16.2322H864.425V37.4416H883.579C888.917 37.4416 892.885 36.612 895.482 34.9528C898.079 33.2214 899.378 30.48 899.378 26.7287Z" fill="white"/>
<path d="M786.843 17.6389H757.085V1.94824H835.646V17.6389H805.888V79.2113H786.843V17.6389Z" fill="white"/>
<path d="M732.511 57.5686C732.511 55.1879 731.537 53.3123 729.59 51.9416C727.642 50.4987 724.431 49.4527 719.959 48.8034L706.216 46.7474C695.683 45.0882 688.036 42.3829 683.275 38.6315C678.514 34.8802 676.133 29.6861 676.133 23.0491C676.133 15.7628 679.415 10.0998 685.98 6.05985C692.617 2.01995 701.743 0 713.358 0C724.107 0 732.403 1.80353 738.247 5.41058C744.162 9.01763 747.949 14.6086 749.609 22.1834L731.429 24.2394C730.059 20.6323 727.93 18.0353 725.045 16.4482C722.159 14.8611 718.083 14.0675 712.817 14.0675C707.118 14.0675 702.717 14.7889 699.615 16.2317C696.513 17.6746 694.962 19.7667 694.962 22.508C694.962 24.9608 695.864 26.8004 697.667 28.0268C699.543 29.2532 702.897 30.2271 707.731 30.9485L723.963 33.5456C733.629 35.0606 740.663 37.6937 745.064 41.445C749.464 45.1964 751.665 50.4266 751.665 57.1357C751.665 64.927 748.454 70.8786 742.034 74.9906C735.613 79.1027 726.271 81.1587 714.007 81.1587C689.191 81.1587 675.881 72.4296 674.077 54.9715H693.122C693.916 59.0835 696.008 62.1495 699.399 64.1695C702.861 66.1173 707.767 67.0912 714.115 67.0912C720.103 67.0912 724.648 66.2976 727.75 64.7105C730.924 63.0513 732.511 60.6706 732.511 57.5686Z" fill="white"/>
<path d="M582.694 1.94824H599.9L642.86 53.5652V1.94824H661.039V79.2113H643.833L600.874 27.4862V79.2113H582.694V1.94824Z" fill="white"/>
<path d="M477.355 40.5794C477.355 32.211 479.195 24.9969 482.874 18.937C486.553 12.8772 491.783 8.22408 498.564 4.97773C505.346 1.65924 513.389 0 522.696 0C532.002 0 540.009 1.65924 546.719 4.97773C553.428 8.22408 558.586 12.8772 562.193 18.937C565.872 24.9969 567.712 32.211 567.712 40.5794C567.712 48.9477 565.872 56.1618 562.193 62.2217C558.514 68.2815 553.283 72.9707 546.502 76.2892C539.721 79.5355 531.677 81.1587 522.371 81.1587C513.137 81.1587 505.129 79.5355 498.348 76.2892C491.639 72.9707 486.445 68.2815 482.766 62.2217C479.159 56.1618 477.355 48.9477 477.355 40.5794ZM497.158 40.5794C497.158 48.4427 499.358 54.5747 503.759 58.9753C508.231 63.3038 514.508 65.468 522.587 65.468C530.523 65.468 536.727 63.3038 541.2 58.9753C545.673 54.5747 547.909 48.4427 547.909 40.5794C547.909 32.6438 545.673 26.5118 541.2 22.1834C536.799 17.8549 530.595 15.6907 522.587 15.6907C514.58 15.6907 508.34 17.891 503.867 22.2916C499.394 26.6201 497.158 32.716 497.158 40.5794Z" fill="white"/>
<path d="M383.198 40.5794C383.198 32.716 384.894 25.7544 388.284 19.6945C391.675 13.5625 396.616 8.76514 403.109 5.30237C409.602 1.76746 417.501 0 426.808 0C448.45 0 461.58 8.94549 466.197 26.8365L447.368 29.0007C445.708 24.3115 443.256 20.9209 440.009 18.8288C436.763 16.7367 432.362 15.6907 426.808 15.6907C419.377 15.6907 413.534 17.8549 409.277 22.1834C405.093 26.5118 403.001 32.6438 403.001 40.5794C403.001 48.5149 405.093 54.6469 409.277 58.9753C413.534 63.3038 419.485 65.468 427.132 65.468C439.18 65.468 446.25 60.851 448.342 51.6169H467.495C466.413 60.9953 462.301 68.2815 455.159 73.4757C448.089 78.5977 438.639 81.1587 426.808 81.1587C417.429 81.1587 409.494 79.4634 403.001 76.0728C396.508 72.61 391.567 67.8487 388.176 61.7888C384.857 55.6568 383.198 48.587 383.198 40.5794Z" fill="white"/>
<path d="M260.173 1.94824H277.378L320.338 53.5652V1.94824H338.518V79.2113H321.312L278.352 27.4862V79.2113H260.173V1.94824Z" fill="white"/>
<path d="M178.168 1.94824H243.745V16.4486H196.997V32.5721H241.472V46.9643H196.997V64.711H246.234L244.178 79.2113H178.168V1.94824Z" fill="white"/>
<path d="M82.0039 1.94824H117.281C132.286 1.94824 143.685 5.23066 151.476 11.7955C159.267 18.3603 163.163 27.9551 163.163 40.5798C163.163 52.9159 159.051 62.4385 150.826 69.1477C142.675 75.8568 130.952 79.2113 115.658 79.2113H82.0039V1.94824ZM143.685 40.4716C143.685 25.0334 134.955 17.3143 117.497 17.3143H100.833V63.8453H116.199C134.523 63.8453 143.685 56.054 143.685 40.4716Z" fill="white"/>
<path d="M0 1.94824H65.5762V16.4486H18.8288V32.5721H63.3038V46.9643H18.8288V64.711H68.0651L66.0091 79.2113H0V1.94824Z" fill="white"/>
</svg>
